<?xml version="1.0" encoding="utf-8"?>
<!-- Generator: Adobe Illustrator 26.2.1, SVG Export Plug-In . SVG Version: 6.00 Build 0)  -->
<svg version="1.1" id="Capa_1" xmlns="http://www.w3.org/2000/svg" xmlns:xlink="http://www.w3.org/1999/xlink" x="0px" y="0px"
	 viewBox="0 0 485.3 485.3" style="enable-background:new 0 0 485.3 485.3;" xml:space="preserve">
<g>
	<g>
		<g>
			<path d="M349.6,29c-36.3,0-70.5,14.2-96.2,39.9l-10.6,10.6L232,68.7c-25.7-25.7-59.9-39.9-96.2-39.9c-36.2,0-70.3,14.1-96,39.8
				S0,128.4,0,164.6s14.2,70.4,39.9,96.1l190.5,190.5l0.4,0.4c3.3,3.3,7.7,4.9,12,4.9c4.4,0,8.8-1.7,12.1-5L445.4,261
				c25.7-25.7,39.9-59.8,39.9-96.1s-14.1-70.5-39.8-96.1C419.9,43,385.8,29,349.6,29z"/>
		</g>
	</g>
</g>
</svg>
